<?xml version="1.0" encoding="iso-8859-1"?>
<!-- Generator: Adobe Illustrator 19.0.0, SVG Export Plug-In . SVG Version: 6.00 Build 0)  -->
<svg version="1.1" id="Layer_1" xmlns="http://www.w3.org/2000/svg" xmlns:xlink="http://www.w3.org/1999/xlink" x="0px" y="0px"
	 viewBox="0 0 512.001 512.001" style="enable-background:new 0 0 512.001 512.001;" xml:space="preserve">
<g>
	<g>
		<path d="M491.721,205.977c30.224-41.359,26.667-99.703-10.686-137.056c-37.344-37.344-95.669-40.908-137.027-10.707l26.755,26.36
			l-23.435,23.786l-26.861-26.464c-29.84,41.329-26.174,99.354,11.031,136.561c37.197,37.197,95.205,40.869,136.532,11.051
			l-97.207-97.652l23.665-23.556L491.721,205.977z"/>
	</g>
</g>
<g>
	<g>
		<path d="M307.888,242.066c-15.464-15.466-26.521-33.667-33.183-53.044l-24.778,27.709c8.275,17.717,19.723,34.319,34.35,48.946
			c14.63,14.63,31.237,26.067,48.956,34.341l27.698-24.77C341.553,268.587,323.352,257.531,307.888,242.066z"/>
	</g>
</g>
<g>
	<g>
		<path d="M260.665,289.288c-13.96-13.96-25.489-29.426-34.602-45.875L77.888,409.103l19.676,19.676l-1.042,1.042
			c-6.984,6.984-16.271,10.832-26.149,10.832s-19.165-3.848-26.151-10.832c-6.985-6.985-10.832-16.272-10.832-26.151
			s3.847-19.165,10.831-26.149l138.685-138.686c13.292-13.291,20.612-30.962,20.612-49.761c0-18.798-7.32-36.469-20.612-49.76
			c-13.292-13.292-30.964-20.612-49.761-20.612c-18.798,0-36.469,7.319-49.761,20.612L0,222.699l23.611,23.609l83.385-83.386
			c6.985-6.984,16.272-10.831,26.151-10.831s19.165,3.847,26.151,10.831s10.832,16.271,10.832,26.149
			c0,9.879-3.847,19.166-10.832,26.151L20.612,353.911C7.32,367.201,0,384.873,0,403.671c0,18.798,7.32,36.469,20.611,49.761
			c13.292,13.292,30.964,20.613,49.761,20.613c18.797,0,36.469-7.32,49.761-20.613l1.042-1.042l19.676,19.676l165.706-148.191
			C290.106,314.762,274.628,303.25,260.665,289.288z"/>
	</g>
</g>
<g>
</g>
<g>
</g>
<g>
</g>
<g>
</g>
<g>
</g>
<g>
</g>
<g>
</g>
<g>
</g>
<g>
</g>
<g>
</g>
<g>
</g>
<g>
</g>
<g>
</g>
<g>
</g>
<g>
</g>
</svg>
